<svg width="72" height="65" viewBox="0 0 72 65" fill="none" xmlns="http://www.w3.org/2000/svg">
<path d="M35.4934 0C49.8192 0.598553 60.4827 6.5732 67.0844 18.5536C73.2771 29.7924 73.1038 41.4121 66.9782 52.8095C64.4837 57.4502 60.9791 61.2157 56.7018 64.2597C56.1243 64.6702 55.1439 64.8458 54.4399 64.7013C44.9237 62.7424 35.3358 62.4143 25.6978 63.386C22.8895 63.6689 20.1218 64.3421 17.3212 64.7261C16.6266 64.821 15.704 64.7059 15.167 64.3095C6.63117 58.0068 1.64362 49.6068 0.539955 39.0459C-1.28023 21.6412 10.1373 4.82418 28.6982 0.831756C31.1084 0.312491 33.6124 0.220765 35.4919 0L35.4934 0ZM34.997 32.3763L34.9923 32.5893C33.3798 32.5893 31.7594 32.4804 30.1593 32.6188C28.3438 32.7758 26.5314 33.0837 24.7456 33.4568C23.2938 33.7599 22.5414 34.9058 22.7147 36.2195C22.8864 37.5301 23.9463 38.3556 25.4231 38.2856C25.9866 38.2592 26.5424 38.1239 27.1059 38.0695C29.4428 37.8457 31.7859 37.4228 34.1181 37.4694C37.5025 37.5363 40.8853 37.8907 44.2587 38.2297C46.6737 38.4722 47.6962 37.7166 47.8335 35.3177C47.8585 34.884 47.8647 34.4502 47.8679 34.0149C47.9163 27.989 48.8935 22.0967 50.5185 16.3102C51.0571 14.3933 51.8376 12.5447 52.4402 10.6434C52.8929 9.21616 52.3434 7.98641 51.1445 7.47958C49.8816 6.94477 48.6047 7.45937 47.9053 8.85859C47.5182 9.63282 47.206 10.449 46.9219 11.2668C44.6615 17.7871 43.3845 24.5034 43.0286 31.3828C42.9599 32.723 42.4292 32.9422 41.249 32.8194C39.1728 32.6017 37.0826 32.5162 34.9986 32.3747L34.997 32.3763ZM37.515 53.82C39.2259 54.117 41.0055 54.4248 42.7851 54.7373C44.585 55.0529 46.3802 55.4011 48.1863 55.681C49.0043 55.8085 49.841 55.7199 49.9815 54.6704C50.1095 53.7128 49.5366 53.2417 48.6297 53.1049C48.3721 53.066 48.1223 52.9805 47.8647 52.9339C45.2953 52.4721 42.7227 52.0182 40.1532 51.5517C37.874 51.1382 37.2403 50.3733 37.2262 48.0086C37.2153 46.0544 37.2106 44.1001 37.2246 42.1444C37.2309 41.1867 36.8812 40.442 35.8525 40.47C34.8877 40.4964 34.5989 41.266 34.5989 42.1397C34.5989 44.0504 34.599 45.9611 34.5927 47.8734C34.5833 50.479 33.9948 51.1413 31.4253 51.5922C28.6389 52.0819 25.8617 52.6167 23.0784 53.1266C22.2198 53.2837 21.6016 53.8123 21.906 54.6316C22.084 55.1089 22.8505 55.44 23.4187 55.6748C23.7294 55.8038 24.1821 55.6079 24.5661 55.538C27.518 55.0016 30.4668 54.4404 33.4266 53.9491C33.7716 53.8915 34.4663 54.1667 34.51 54.3859C34.6895 55.2877 34.8097 56.2267 35.9789 56.1552C37.1138 56.0868 37.209 55.112 37.2933 54.2211C37.3011 54.1434 37.3714 54.0719 37.5119 53.8185L37.515 53.82ZM37.7164 59.3158C37.7273 58.2571 36.9858 57.5171 35.9134 57.5186C34.9002 57.5186 34.1728 58.212 34.1322 59.2101C34.09 60.2486 34.8425 61.0649 35.8743 61.1006C36.8656 61.1348 37.7054 60.3202 37.7164 59.3174V59.3158ZM45.3733 60.4508C46.4489 60.4508 47.2169 59.7092 47.2044 58.6831C47.1935 57.7472 46.2678 56.8563 45.3374 56.8859C44.4632 56.9123 43.5875 57.7845 43.5594 58.6551C43.5281 59.6361 44.3508 60.4508 45.3717 60.4508H45.3733ZM28.2689 58.7484C28.2939 57.7674 27.4603 56.8968 26.4862 56.8874C25.5745 56.8781 24.7284 57.6772 24.6816 58.5882C24.627 59.6579 25.3248 60.4166 26.3909 60.4476C27.4821 60.4803 28.2423 59.79 28.2689 58.7468V58.7484Z" fill="#FF6600"/>
</svg>
