<svg width="420" height="131" viewBox="0 0 420 131" fill="none" xmlns="http://www.w3.org/2000/svg">
<g clipPath="url(#clip0_2_10235)">
<path d="M52.4752 124H47.2832C46.4277 124 46 123.574 46 122.722V86.1543C46 85.3024 46.4277 84.8764 47.2832 84.8764H62.1897C65.3664 84.8764 67.8297 85.7393 69.5812 87.4618C71.3312 89.186 72.2085 91.6299 72.2085 94.7937V100.635C72.2085 103.798 71.3327 106.242 69.5812 107.967C67.8297 109.691 65.3664 110.552 62.1897 110.552H54.4921C54.0035 110.552 53.7584 110.776 53.7584 111.221V122.721C53.7584 123.572 53.3307 123.998 52.4752 123.998V124ZM54.4297 103.8H60.9049C62.2084 103.8 63.1247 103.526 63.6539 102.979C64.1831 102.432 64.4485 101.529 64.4485 100.271V95.1606C64.4485 93.8625 64.1831 92.9406 63.6539 92.3917C63.1247 91.8445 62.2084 91.5709 60.9049 91.5709H54.4312C53.9832 91.5709 53.76 91.7947 53.76 92.2394V103.13C53.76 103.576 53.9832 103.798 54.4312 103.798L54.4297 103.8Z" fill="black"/>
<path d="M78.0734 87.737V82.4433C78.0734 81.6318 78.4792 81.226 79.2957 81.226H84.611C85.4259 81.226 85.8333 81.6116 85.8333 82.3827V87.737C85.8333 88.5486 85.4259 88.9543 84.611 88.9543H79.2957C78.4808 88.9543 78.0734 88.5486 78.0734 87.737ZM78.0734 122.722V94.248C78.0734 93.3961 78.4792 92.9701 79.2957 92.9701H84.5502C85.4056 92.9701 85.8333 93.3961 85.8333 94.248V122.722C85.8333 123.249 85.7412 123.594 85.5586 123.756C85.376 123.919 85.0591 124 84.611 124H79.3565C78.5011 124 78.0734 123.574 78.0734 122.722Z" fill="black"/>
<path d="M112.713 118.585V122.783C112.713 123.229 112.621 123.543 112.438 123.726C112.256 123.91 111.918 124 111.43 124H102.327C99.11 124 96.6248 123.148 94.8733 121.444C93.1218 119.74 92.2461 117.287 92.2461 114.083V102.887C92.2461 99.6832 93.1218 97.2284 94.8733 95.526C96.6233 93.8221 99.1085 92.9701 102.327 92.9701H111.43C112.285 92.9701 112.713 93.3961 112.713 94.248V98.4457C112.713 98.8919 112.621 99.2059 112.438 99.3894C112.256 99.5728 111.918 99.663 111.43 99.663H103.55C102.287 99.663 101.381 99.9366 100.83 100.484C100.281 101.031 100.006 101.955 100.006 103.253V113.717C100.006 115.016 100.281 115.937 100.83 116.486C101.38 117.035 102.287 117.307 103.55 117.307H111.43C112.285 117.307 112.713 117.733 112.713 118.585Z" fill="black"/>
<path d="M124.443 124H119.249C118.394 124 117.966 123.574 117.966 122.722V82.504C117.966 81.652 118.394 81.226 119.249 81.226H124.443C125.298 81.226 125.726 81.652 125.726 82.504V122.722C125.726 123.574 125.298 124 124.443 124ZM135.806 92.9701H141.731C142.22 92.9701 142.546 93.1131 142.709 93.3961C142.871 93.6806 142.81 94.0459 142.526 94.4906L134.401 107.816V108.06L142.893 122.48C143.138 122.885 143.157 123.24 142.954 123.544C142.749 123.849 142.382 124 141.855 124H136.6C135.907 124 135.409 123.919 135.103 123.756C134.797 123.594 134.482 123.249 134.156 122.722L126.397 109.154C126.03 108.506 126.03 107.836 126.397 107.146L133.728 94.1859C134.176 93.3743 134.867 92.9685 135.806 92.9685V92.9701Z" fill="black"/>
<path d="M161.83 124H156.636C155.781 124 155.353 123.574 155.353 122.722V109.702L144.173 86.2166C144.009 85.8512 144.02 85.5372 144.204 85.2729C144.387 85.0101 144.663 84.878 145.028 84.878H151.504C152.155 84.878 152.643 85.304 152.969 86.1559L159.079 100.941H159.507L165.494 86.1559C165.778 85.304 166.266 84.878 166.96 84.878H173.435C173.841 84.878 174.137 84.9993 174.32 85.2433C174.503 85.4874 174.493 85.8124 174.289 86.2166L163.108 109.702V122.722C163.108 123.574 162.681 124 161.825 124H161.83Z" fill="black"/>
<path d="M193.293 124H187.856C184.638 124 182.153 123.148 180.402 121.444C178.65 119.74 177.774 117.287 177.774 114.083V102.887C177.774 99.6832 178.65 97.2284 180.402 95.526C182.152 93.8221 184.637 92.9701 187.856 92.9701H193.293C196.47 92.9701 198.944 93.8329 200.716 95.5555C202.487 97.2797 203.373 99.7236 203.373 102.887V114.083C203.373 117.246 202.487 119.69 200.716 121.415C198.944 123.139 196.47 124 193.293 124ZM189.017 117.368H192.133C193.436 117.368 194.362 117.105 194.913 116.576C195.463 116.049 195.737 115.137 195.737 113.839V103.13C195.737 101.832 195.463 100.919 194.913 100.392C194.364 99.8651 193.436 99.6008 192.133 99.6008H189.017C187.714 99.6008 186.797 99.8651 186.268 100.392C185.739 100.919 185.474 101.832 185.474 103.13V113.839C185.474 115.137 185.737 116.049 186.268 116.576C186.797 117.103 187.714 117.368 189.017 117.368Z" fill="black"/>
<path d="M220.722 124H218.707C215.571 124 213.198 123.148 211.59 121.444C209.98 119.74 209.177 117.287 209.177 114.083V94.248C209.177 93.3961 209.604 92.9701 210.46 92.9701H215.653C216.509 92.9701 216.936 93.3961 216.936 94.248V113.717C216.936 115.016 217.211 115.937 217.761 116.486C218.31 117.033 219.217 117.307 220.48 117.307H222.74C225.55 117.307 226.955 115.766 226.955 112.683V94.248C226.955 93.3961 227.383 92.9701 228.238 92.9701H233.37C234.266 92.9701 234.714 93.3961 234.714 94.248V122.722C234.714 123.574 234.266 124 233.37 124H228.238C227.383 124 226.955 123.574 226.955 122.722V120.713H226.71C226.262 121.808 225.468 122.63 224.328 123.178C223.187 123.725 221.985 123.998 220.724 123.998L220.722 124Z" fill="black"/>
<path d="M247.908 124H242.714C241.859 124 241.431 123.574 241.431 122.722V94.248C241.431 93.3961 241.859 92.9701 242.714 92.9701H247.908C248.763 92.9701 249.191 93.3961 249.191 94.248V96.3173H249.436C249.884 95.2228 250.679 94.3911 251.818 93.8236C252.958 93.2562 254.16 92.9716 255.423 92.9716H257.622C258.437 92.9716 258.845 93.3976 258.845 94.2496V98.4472C258.845 98.9339 258.752 99.2681 258.57 99.4516C258.387 99.6335 258.07 99.705 257.622 99.6646H253.407C250.598 99.6646 249.193 101.247 249.193 104.411V122.725C249.193 123.577 248.765 124.003 247.909 124.003L247.908 124Z" fill="black"/>
<path d="M262.387 114.022V112.805C262.387 111.953 262.814 111.527 263.67 111.527H268.863C269.719 111.527 270.147 111.953 270.147 112.805V113.291C270.147 114.834 270.453 115.888 271.063 116.455C271.673 117.024 272.794 117.307 274.422 117.307H277.293C278.882 117.307 279.991 117.002 280.623 116.394C281.253 115.787 281.57 114.652 281.57 112.987V112.256C281.57 111.081 281.091 110.177 280.134 109.548C279.177 108.92 277.985 108.543 276.561 108.422C275.134 108.301 273.598 108.068 271.948 107.722C270.298 107.379 268.76 106.931 267.335 106.384C265.908 105.837 264.717 104.762 263.762 103.159C262.805 101.558 262.326 99.4998 262.326 96.9843V94.8544C262.326 91.6906 263.222 89.2373 265.014 87.4929C266.806 85.7501 269.29 84.8764 272.468 84.8764H278.578C281.795 84.8764 284.299 85.7486 286.093 87.4929C287.885 89.2373 288.781 91.6906 288.781 94.8544V96.011C288.781 96.863 288.353 97.289 287.498 97.289H282.304C281.449 97.289 281.021 96.863 281.021 96.011V95.6457C281.021 94.0646 280.715 92.9903 280.104 92.4213C279.494 91.8538 278.373 91.5693 276.745 91.5693H274.363C272.693 91.5693 271.562 91.8834 270.972 92.513C270.381 93.1427 270.087 94.3693 270.087 96.1945V97.3512C270.087 99.2588 271.756 100.353 275.097 100.636C278.557 100.921 281.634 101.609 284.321 102.706C285.746 103.313 286.937 104.4 287.894 105.961C288.851 107.523 289.33 109.52 289.33 111.954V114.024C289.33 117.187 288.434 119.642 286.642 121.385C284.85 123.129 282.365 124.002 279.188 124.002H272.529C269.352 124.002 266.867 123.129 265.075 121.385C263.283 119.642 262.387 117.187 262.387 114.024V114.022Z" fill="black"/>
<path d="M318.651 124H305.15C301.933 124 299.447 123.148 297.696 121.444C295.944 119.74 295.069 117.287 295.069 114.083V102.887C295.069 99.6832 295.944 97.2284 297.696 95.526C299.446 93.8221 301.931 92.9701 305.15 92.9701H309.977C313.194 92.9701 315.678 93.8221 317.431 95.526C319.181 97.2299 320.058 99.6848 320.058 102.887V110.614C320.058 111.466 319.63 111.892 318.775 111.892H303.441C302.952 111.892 302.707 112.116 302.707 112.561V113.899C302.707 115.157 302.982 116.059 303.531 116.607C304.081 117.155 305.006 117.428 306.311 117.428H318.651C319.507 117.428 319.935 117.875 319.935 118.767V122.783C319.935 123.229 319.842 123.543 319.66 123.726C319.477 123.908 319.14 124 318.651 124ZM303.439 106.721H311.747C312.195 106.721 312.42 106.499 312.42 106.053V103.132C312.42 101.833 312.154 100.921 311.625 100.394C311.096 99.8667 310.18 99.6024 308.876 99.6024H306.31C305.006 99.6024 304.09 99.8667 303.561 100.394C303.032 100.921 302.766 101.833 302.766 103.132V106.053C302.766 106.499 302.989 106.721 303.437 106.721H303.439Z" fill="black"/>
<path d="M336.795 124H335.33C332.112 124 329.627 123.148 327.876 121.444C326.124 119.74 325.248 117.287 325.248 114.083V102.887C325.248 99.6832 326.124 97.2284 327.876 95.526C329.626 93.8221 332.111 92.9701 335.33 92.9701H349.442C350.338 92.9701 350.786 93.3961 350.786 94.248V122.722C350.786 123.574 350.338 124 349.442 124H344.31C343.455 124 343.027 123.574 343.027 122.722V120.713H342.782C342.334 121.808 341.54 122.63 340.4 123.178C339.259 123.725 338.057 123.998 336.795 123.998V124ZM343.027 112.683V100.332C343.027 99.8853 342.782 99.663 342.294 99.663H336.55C335.247 99.663 334.331 99.9366 333.801 100.484C333.272 101.031 333.007 101.955 333.007 103.253V113.717C333.007 115.016 333.271 115.937 333.801 116.486C334.331 117.033 335.247 117.307 336.55 117.307H338.811C341.621 117.307 343.026 115.766 343.026 112.683H343.027Z" fill="black"/>
<path d="M358.177 99.663H355.734C355.246 99.663 354.91 99.5821 354.726 99.4189C354.543 99.2572 354.451 98.9323 354.451 98.4457V94.248C354.451 93.396 354.879 92.9701 355.734 92.9701H358.177C358.625 92.9701 358.849 92.7477 358.849 92.3016V86.5212C358.849 85.6693 359.297 85.2433 360.193 85.2433H365.324C366.179 85.2433 366.607 85.6693 366.607 86.5212V92.3016C366.607 92.7477 366.852 92.9701 367.341 92.9701H372.107C372.962 92.9701 373.39 93.396 373.39 94.248V98.4457C373.39 98.8918 373.298 99.2059 373.115 99.3893C372.932 99.5712 372.595 99.663 372.107 99.663H367.341C366.852 99.663 366.607 99.8868 366.607 100.331V113.778C366.607 115.036 366.891 115.937 367.462 116.486C368.032 117.033 368.969 117.307 370.272 117.307H372.715C373.571 117.307 373.998 117.733 373.998 118.585V122.783C373.998 123.229 373.906 123.543 373.724 123.726C373.541 123.908 373.204 124 372.715 124H368.989C365.772 124 363.277 123.148 361.505 121.444C359.734 119.74 358.849 117.307 358.849 114.143V100.331C358.849 99.8853 358.624 99.663 358.177 99.663Z" fill="black"/>
<path d="M209.493 0C223.819 0.598553 234.483 6.5732 241.084 18.5536C247.277 29.7924 247.104 41.4121 240.978 52.8095C238.484 57.4502 234.979 61.2157 230.702 64.2597C230.124 64.6702 229.144 64.8458 228.44 64.7013C218.924 62.7424 209.336 62.4143 199.698 63.386C196.89 63.6689 194.122 64.3421 191.321 64.7261C190.627 64.821 189.704 64.7059 189.167 64.3095C180.631 58.0068 175.644 49.6068 174.54 39.0459C172.72 21.6412 184.137 4.82418 202.698 0.831756C205.108 0.312491 207.612 0.220765 209.492 0L209.493 0ZM208.997 32.3763L208.992 32.5893C207.38 32.5893 205.759 32.4804 204.159 32.6188C202.344 32.7758 200.531 33.0837 198.746 33.4568C197.294 33.7599 196.541 34.9058 196.715 36.2195C196.886 37.5301 197.946 38.3556 199.423 38.2856C199.987 38.2592 200.542 38.1239 201.106 38.0695C203.443 37.8457 205.786 37.4228 208.118 37.4694C211.503 37.5363 214.885 37.8907 218.259 38.2297C220.674 38.4722 221.696 37.7166 221.834 35.3177C221.859 34.884 221.865 34.4502 221.868 34.0149C221.916 27.989 222.893 22.0967 224.519 16.3102C225.057 14.3933 225.838 12.5447 226.44 10.6434C226.893 9.21616 226.343 7.98641 225.145 7.47958C223.882 6.94477 222.605 7.45937 221.905 8.85859C221.518 9.63282 221.206 10.449 220.922 11.2668C218.661 17.7871 217.385 24.5034 217.029 31.3828C216.96 32.723 216.429 32.9422 215.249 32.8194C213.173 32.6017 211.083 32.5162 208.999 32.3747L208.997 32.3763ZM211.515 53.82C213.226 54.117 215.006 54.4248 216.785 54.7373C218.585 55.0529 220.38 55.4011 222.186 55.681C223.004 55.8085 223.841 55.7199 223.982 54.6704C224.11 53.7128 223.537 53.2417 222.63 53.1049C222.372 53.066 222.122 52.9805 221.865 52.9339C219.295 52.4721 216.723 52.0182 214.153 51.5517C211.874 51.1382 211.24 50.3733 211.226 48.0086C211.215 46.0544 211.211 44.1001 211.225 42.1444C211.231 41.1867 210.881 40.442 209.852 40.47C208.888 40.4964 208.599 41.266 208.599 42.1397C208.599 44.0504 208.599 45.9611 208.593 47.8734C208.583 50.479 207.995 51.1413 205.425 51.5922C202.639 52.0819 199.862 52.6167 197.078 53.1266C196.22 53.2837 195.602 53.8123 195.906 54.6316C196.084 55.1089 196.85 55.44 197.419 55.6748C197.729 55.8038 198.182 55.6079 198.566 55.538C201.518 55.0016 204.467 54.4404 207.427 53.9491C207.772 53.8915 208.466 54.1667 208.51 54.3859C208.689 55.2877 208.81 56.2267 209.979 56.1552C211.114 56.0868 211.209 55.112 211.293 54.2211C211.301 54.1434 211.371 54.0719 211.512 53.8185L211.515 53.82ZM211.716 59.3158C211.727 58.2571 210.986 57.5171 209.913 57.5186C208.9 57.5186 208.173 58.212 208.132 59.2101C208.09 60.2486 208.842 61.0649 209.874 61.1006C210.866 61.1348 211.705 60.3202 211.716 59.3174V59.3158ZM219.373 60.4508C220.449 60.4508 221.217 59.7092 221.204 58.6831C221.193 57.7472 220.268 56.8563 219.337 56.8859C218.463 56.9123 217.587 57.7845 217.559 58.6551C217.528 59.6361 218.351 60.4508 219.372 60.4508H219.373ZM202.269 58.7484C202.294 57.7674 201.46 56.8968 200.486 56.8874C199.575 56.8781 198.728 57.6772 198.682 58.5882C198.627 59.6579 199.325 60.4166 200.391 60.4476C201.482 60.4803 202.242 59.79 202.269 58.7468V58.7484Z" fill="#FF6600"/>
</g>
<defs>
<clipPath id="clip0_2_10235">
<rect width="328" height="124" fill="white" transform="translate(46)"/>
</clipPath>
</defs>
</svg>
